<?xml version="1.0" encoding="utf-8"?>
<!-- Generator: Adobe Illustrator 24.2.3, SVG Export Plug-In . SVG Version: 6.00 Build 0)  -->
<svg version="1.1" id="Ebene_1" xmlns="http://www.w3.org/2000/svg" xmlns:xlink="http://www.w3.org/1999/xlink" x="0px" y="0px"
	 viewBox="0 0 538 360" style="enable-background:new 0 0 538 360;" xml:space="preserve">
<style type="text/css">
	.st0{fill:#CFCFCF;}
	.st1{clip-path:url(#SVGID_2_);fill:#CFCFCF;}
	.st2{clip-path:url(#SVGID_4_);fill:#CFCFCF;}
	.st3{clip-path:url(#SVGID_6_);fill:#CFCFCF;}
	.st4{clip-path:url(#SVGID_8_);fill:#CFCFCF;}
	.st5{clip-path:url(#SVGID_10_);fill:#CFCFCF;}
	.st6{clip-path:url(#SVGID_12_);fill:#CFCFCF;}
	.st7{clip-path:url(#SVGID_14_);fill:#CFCFCF;}
	.st8{fill:#1D1D1B;}
</style>
<g>
	<path class="st0" d="M147.8,338.5l16.5-16l11.2,11.5L159,350L147.8,338.5z M156.8,315l0.8,0.8l-27.7,27.4l-5.6,5.6l0.3,0.3
		L113.5,360h13.2l8.2-8.1v-0.6l1.7-1.7l5.9-5.3l1.4,1.4l10.9,10.6l0.3,2.8l0.8,0.8h12.6l-0.8-0.8l16.5-16.2l0,0.3l4.2,4.2l-2.5,2.5
		l-1.7-1.7l-10.9,10.9l0.8,0.8h9.9l5.6-5.3l-2-2l3.4-3.1v-0.3l4.2,4.2l-6.7,6.4H205l6.1-6.1l-11.8-11.8l-0.8,0.8l-23.2-23.5l1.1-1.1
		l-11.5-11.5L156.8,315z"/>
	<path class="st0" d="M303.2,19l7.3-10.1l-0.6-0.6l1.1-2l1.7,0.8l-0.3,0.8l11.2,7.8l17.1,13.2l14,10.1l5.9,4.2l0.6-0.3l5.6,4.5
		l-2.5,3.4l-14.6,19.9l-5.9-4.2l0.3-0.6l-3.9-3.4l-13.7-10.4l-11.2-8.1l-0.3,0.3l-13.4-10.1l-0.3,0.6l-1.4-1.1l-3.9-3.1l-0.3,0.6
		l-2.5-2l0.6-0.6l1.4,0.8l0.9-1.3l0.2,0.1L303.2,19z M306.9,0l-5.7,7.8l-11.2,15.1l-6.2,8.7V33l8.7,6.4l3.6,2.8l9.8,7.3l14.6,10.6
		l14,10.4l15.1,11.2l2.8-0.6l5.6-7.8l9-12.3l3.1-4.2l0.6-0.8l6.2-7.8l-0.3-2.5L359.8,33l-14-10.4L328.4,10l-9.5-7.3L315,0H306.9z"/>
	<polygon class="st0" points="0,233.3 9.2,237.7 1.1,254.8 0.3,256.4 0,256.3 0,263.3 1.4,264 7,266.5 14.3,251.4 19.3,240.5 
		23.8,230.7 0,219.6 	"/>
	<g>
		<defs>
			<rect id="SVGID_1_" x="0" y="0" width="538" height="360"/>
		</defs>
		<clipPath id="SVGID_2_">
			<use xlink:href="#SVGID_1_"  style="overflow:visible;"/>
		</clipPath>
		<path class="st1" d="M-54.3,179.4l8.7,4.5l8.1,4.2l7,3.6l7.8,4.2l5.6,3.1l5.3-10.9l3.9-8.4l4.8-9.8l2.8-5.9l-15.4-7.8l-7.3-3.6
			l-15.4-7.6l-4.8,10.4l-3.9,8.4l-4.8,10.1L-54.3,179.4L-54.3,179.4z M-42.9,176.1l7.8-18.2l-0.8-0.3l0.8-2l3.1,1.7l-0.6,1.4
			l19.6,10.1l0.8,0.3l-0.6,1.4l-0.8-0.3l-5,11.2l1.4,0.6l-3.4,6.7l-18.8-9.8l-0.3,0.6l-3.9-2l0.3-0.6L-42.9,176.1z"/>
	</g>
	<polygon class="st0" points="524.1,20.7 497.3,47.8 517.4,65.8 538,84.2 538,59.9 527.2,52 525.3,50.4 538,33.1 538,12.2 
		533.7,10.9 	"/>
	<polygon class="st0" points="233.8,350.2 237.7,347.4 241.1,351.9 237.1,354.7 	"/>
	<path class="st0" d="M528.6,272.4l-5.9-4.2l-12.9,18.5l5.9,4.2l-11.5,16.5l-20.4-14.3l-9.5,13.7l0.3-0.3l22.1,15.4l12.9,9
		l22.4-32.2l1.4-2.2l4.6-6.7v-31.1L528.6,272.4z M523.3,244.1l14.7,10.1v-20.4l-5.2-3.4L523.3,244.1z"/>
	<polygon class="st0" points="68,102.7 71.7,105 67.7,112 64.4,110 57.1,122.6 60.5,124.6 56.3,131.6 52.6,129.6 49.3,135.5 
		64.1,144.2 67.5,138.3 66.6,137.7 82.3,110.8 83.1,111.4 86.5,105.5 71.4,96.8 68,102.7 	"/>
	<polygon class="st0" points="17.3,138.6 34.7,147 35.5,145.6 43.9,149.5 43.1,150.9 60.7,159.6 54.9,169.6 38.1,161.5 37.5,162.9 
		29.1,159 29.9,157.6 12.6,149.2 17.6,138.8 	"/>
	<polygon class="st0" points="51.2,29.9 42,45.6 53.7,52.6 53.5,53.2 62.4,58.5 62.7,57.9 74.2,64.6 83.4,49 74.7,43.9 71.4,49.5 
		66.9,47 70,41.7 69.1,41.1 69.7,40 66.6,38.3 65.8,39.4 63.8,38.3 63.5,38.6 62.1,40.8 60.7,43.4 56.3,40.6 57.7,38 59.1,35.8 
		59.6,35 50.9,29.6 	"/>
	<polygon class="st0" points="114.2,280.5 106.1,277.4 101.1,290.6 120.9,297.9 125.7,285 117.3,281.9 118.1,279.4 119.3,279.7 
		120.7,275.5 115.1,273.5 113.7,277.4 114.5,277.7 113.7,280.2 	"/>
	<polygon class="st0" points="44.8,241.3 38.3,238.2 35.5,244.1 36.1,244.4 38.1,245.5 37.2,247.2 41.1,249.2 44.8,241.6 	"/>
	<polygon class="st0" points="38.3,238.2 34.1,236.3 32.7,236.6 31.6,236.8 28,244.1 34.4,247.2 35.8,244.1 35.3,243.8 38.1,238 	
		"/>
	<polygon class="st0" points="28,244.1 24.6,251.1 32.2,254.8 34.7,249.4 33.6,248.9 34.4,247.2 28,244.1 	"/>
	<polygon class="st0" points="24.6,251.1 32.2,254.8 26.6,266.5 22.9,274.4 15.4,270.7 24.9,251.1 	"/>
	<polygon class="st0" points="211.1,320.8 237.4,288.4 231,283.3 206.3,262.6 184.2,283.6 211.1,320.8 	"/>
	<polygon class="st0" points="197.7,215.3 190.7,225.6 208.6,237.7 215.9,227.3 210.5,224 209.7,225.1 206.9,223.1 207.5,222 	"/>
	<polygon class="st0" points="472.3,318.9 478.2,323.1 478.5,322.5 490.8,331.2 497.3,335.7 497,336.2 503.1,340.4 493.6,354.2 
		487.5,350 487.2,350.5 468.4,337.6 468.7,337.1 462.5,332.9 472.1,319.2 	"/>
	<polygon class="st0" points="449.1,121.8 450.2,120.6 440.7,111.1 432,119.8 432.6,120.4 415.8,136.9 393.9,158.4 393.4,157.9 
		392,159 383,167.7 383.6,168.2 392.3,176.9 393.4,178 400.7,171 402.3,169.4 403.5,168.2 402.6,167.4 441.5,129.3 441.8,129.6 
		449.1,122 	"/>
	<polygon class="st0" points="338.2,199.3 333.2,204.1 328.1,208.6 293.4,174.7 313,147.8 318.3,151.2 324.2,155.6 311.6,173 
		338.2,198.8 	"/>
	<polygon class="st0" points="319.5,141.6 329,148.6 344.9,127.4 345.5,127.9 352.8,118.1 351.9,117.6 367.9,96.3 358.4,89.3 
		342.4,110.8 341.9,110.3 339.1,113.9 334.9,119.5 335.4,120.1 319.5,141.4 	"/>
	<polygon class="st0" points="376,85.6 373.5,89.3 363.4,81.4 382.5,55.4 386.9,55.1 434.3,103.8 425.3,112.8 422.2,109.4 
		385.8,72.2 384.7,72.5 375.5,85.6 	"/>
	<polygon class="st0" points="462.8,257.8 446.3,276.9 440.7,272.1 439.9,271.3 435.1,276.6 448.5,288.4 470.1,263.7 463.1,257.6 	
		"/>
	<polygon class="st0" points="386.1,354.4 390.9,360 413.8,360 399.5,343 	"/>
	<polygon class="st0" points="71.4,360 85.1,360 87.1,357.2 83.7,353.9 80.1,350 79.2,349.1 	"/>
	<polygon class="st0" points="123.5,311.9 126.5,310.8 136.6,300.7 142.2,306.6 130.5,318.3 127.4,322.5 123.2,320.6 123.2,312.2 	
		"/>
	<polygon class="st0" points="441,297.3 467.6,323.1 462,331.5 456.4,325.9 455.3,327.3 446,317.5 446.9,316.1 434.5,304.6 
		441,297.6 	"/>
	<polygon class="st0" points="532.5,213 534.2,215 530.3,218.6 528.6,216.7 	"/>
	<path class="st0" d="M451.9,357.2L451.9,357.2L451.9,357.2L451.9,357.2z M451.9,357.2l4.5,2.8h9.1l2.9-3.6l-10.6-7.8L451.9,357.2z"
		/>
	<polygon class="st0" points="465.5,360 473.6,360 468.4,356.4 	"/>
	<polygon class="st0" points="436.8,353.9 440.7,350.2 439.9,349.7 440.7,348.6 446.6,354.4 453,344.9 450.5,342.4 449.1,341 
		450.2,340.2 417.7,308.5 416.9,309.4 409.1,317.5 409.6,318 408.5,319.2 407.9,318.6 404.6,322 409.1,326.2 437.1,353.6 	"/>
	<polygon class="st0" points="409.6,302.4 413.8,306.6 416.9,309.6 409.1,317.8 405.7,314.4 401.8,310.5 409.6,302.4 	"/>
	<polygon class="st0" points="309.7,327 310.5,326.2 304.1,318.3 297.1,310.8 294.3,313.3 292.3,311 285.3,317.5 301,335.1 
		307.1,330.1 306.9,329.5 309.7,327.3 	"/>
	<polygon class="st0" points="301.3,290.9 304.1,288.1 310.2,282.5 308.8,280.8 306.3,278 303.5,278 298.2,283 295.9,285.6 
		301.3,290.6 	"/>
	<polygon class="st0" points="319.2,308 326.2,302.1 327,301.2 329.8,304.3 329,305.2 331.2,307.4 334.3,311.3 329.5,315.2 
		330.7,316.4 328.1,318.3 323.4,313 319.2,308.2 	"/>
	<polygon class="st0" points="264.9,177.2 263.5,183.4 265.4,183.6 265.4,183.9 264,185.3 267.9,189.2 270.5,186.7 275.8,181.7 
		275.2,179.4 265.1,177.2 	"/>
	<polygon class="st0" points="138.6,158.2 143.1,148.9 145,146.4 147.8,144.7 151.2,144.2 152.6,144.4 154,145 156.8,147 
		158.5,149.8 159,152.8 159,162.9 150.6,162.6 145.9,161.5 138.6,157.9 	"/>
	<polygon class="st0" points="269.1,355.8 262.1,347.7 258.1,343.2 265.1,337.1 272.4,345.5 273.5,344.6 274.9,346.3 275.8,345.8 
		278.3,348.6 276.6,350 269.3,356.1 	"/>
	<polygon class="st0" points="397,51.8 406.3,60.4 409.3,57.1 413.5,52.9 411.9,51.2 418.9,43.6 439.6,63.2 445.5,68.8 446,68.3 
		457.8,55.7 468.1,65.2 476,56.8 439.6,22.6 437.9,24.6 428.7,15.9 421.1,24 416.9,28.5 418,29.6 397.3,51.8 	"/>
	<polygon class="st0" points="400.1,336 399,337.1 398.1,336.2 392.5,341.3 382.7,330.6 389.5,325 399.8,336.2 	"/>
	<polygon class="st0" points="152.3,277.7 142.5,298.4 152,302.9 161.8,282.2 158.2,280.5 	"/>
	<path class="st0" d="M0,23.7v4.8L2.8,24l-2.2-1.4L0,23.7z M2.8,0L0,4.2v12.4l2.2-3.2l3.4,2L5,16.5l2,1.4l4.8-7.3l-2-1.4L9.2,10
		L5.9,7.8L11,0H2.8z M11.7,0l2.6,1.6l-0.6,1.1l2.2,1.4L18.2,0H11.7z"/>
	<polygon class="st0" points="249.2,243 265.1,256.4 257.6,265.4 241.6,252 244.7,248.3 248.9,243.3 	"/>
	<polygon class="st0" points="334.5,0 343.3,6.4 365.1,22.4 382.5,35.2 395.6,17.3 395.9,17 395.3,16.8 386.4,10.3 385.8,9.8 
		385.5,10.3 379.7,18.4 376.6,16.2 377.1,15.6 363.7,5.8 364,5.6 356.3,0 	"/>
	<polygon class="st0" points="299.9,66 306.3,70.5 310.8,64.4 304.3,59.9 301.8,63.5 299.9,66.3 	"/>
	<polygon class="st0" points="284.7,55.7 295.4,63.5 300.4,56.8 294.5,52.3 290.1,49 285,55.7 	"/>
	<polygon class="st0" points="255.9,54 251.4,59.3 245.3,68.3 242.5,68.6 234.6,62.7 238,58.5 241.3,60.4 242.5,59 249.7,48.7 
		256.2,54 	"/>
	<polygon class="st0" points="248.9,123.2 250.3,124.3 252,122.3 252.5,122.6 255.3,118.7 269.6,129.6 266.8,133.5 267.4,133.8 
		265.7,136 267.4,137.2 262.9,143 260.9,141.6 261.5,140.8 255.6,136.3 255.1,136.9 253.9,136 252,134.6 252.5,134.1 246.7,129.6 
		246.1,130.2 244.4,128.8 248.9,122.9 	"/>
	<polygon class="st0" points="44.2,274.9 48.4,276.9 52.6,278.8 49,286.7 44.8,284.7 40.3,282.5 43.9,274.6 	"/>
	<polygon class="st0" points="63.8,259.2 61.9,258.4 61.6,259 56,256.2 59.6,248.3 64.9,250.8 67.2,252 63.8,259.2 	"/>
	<polygon class="st0" points="47.3,222.3 39.7,218.6 38.9,220.3 36.7,225.1 37.2,227.3 43.1,230.4 47,222 	"/>
	<polygon class="st0" points="84.3,239.9 90.1,227.6 83.1,222.3 82,224.5 81.5,224.2 80.1,227.3 78.1,231.5 79.2,232.1 78.1,234.6 
		84,239.9 	"/>
	
		<rect x="42.2" y="246.3" transform="matrix(0.4229 -0.9062 0.9062 0.4229 -199.0907 189.3511)" class="st0" width="13.9" height="9.3"/>
	<polygon class="st0" points="53.5,235.2 57.7,226.5 64.9,230.1 60.7,238.8 	"/>
	<polygon class="st0" points="94.1,336 97.1,332.9 101.3,328.4 84.5,320 80.9,326.7 79.2,325.9 75.9,333.2 88.2,339 88.7,338.5 
		89.9,339.6 90.7,338.8 94.1,335.7 	"/>
	<polygon class="st0" points="24.1,325.6 19,320.8 24.3,315.5 29.4,320.3 	"/>
	<polygon class="st0" points="61,319.7 58.8,324.5 57.7,323.9 57.1,325.3 56.5,326.7 57.9,327.3 56,331.5 58.5,332.9 64.7,336 
		65.8,333.4 64.9,332.9 69.4,323.4 61.3,319.4 	"/>
	<g>
		<defs>
			<rect id="SVGID_3_" x="0" y="0" width="538" height="360"/>
		</defs>
		<clipPath id="SVGID_4_">
			<use xlink:href="#SVGID_3_"  style="overflow:visible;"/>
		</clipPath>
		<polygon class="st2" points="-24.7,357.2 -15.4,348 -13.7,346.6 5.9,366.2 13.1,374 7.3,386.9 -7.6,386.4 -9,386.4 -24.7,385.5 
			-24.4,376.8 -24.1,370.4 -18.2,364.2 -22.1,360 -24.9,357 		"/>
	</g>
	<polygon class="st0" points="109.2,329.2 103.3,326.4 101.3,328.4 97.1,332.9 101.3,336.8 109.2,329.2 	"/>
	<path class="st0" d="M16.2,307.4l0.3,0.3L16.2,307.4L16.2,307.4z M0,300.7v7.3l3.1,1.3l2-2.2l6.2,5.9l5-5.6l-9.5-9.2l-1.1,0.6
		l-3.4-2.8L0,300.7z"/>
	<polygon class="st0" points="95.5,358.4 105,349.4 98.8,343.5 96.3,345.8 89.3,352.8 95.2,358.6 	"/>
	<polygon class="st0" points="118.1,336 117.9,333.4 112,330.6 103.3,339 108.9,344.9 118.1,336 	"/>
	<polygon class="st0" points="19.3,310.5 24.3,315.2 19,320.6 14,315.8 	"/>
	<polygon class="st0" points="57.4,266.8 56.3,269 56.8,269.3 55.7,271.8 55.4,271.6 54.3,273.8 49,271.3 52.3,264.6 57.4,267.1 	
		"/>
	<polygon class="st0" points="294.8,213.3 288.1,207.7 286.4,209.7 283.9,212.8 290.9,218.4 292.6,216.4 295.1,213 	"/>
	<polygon class="st0" points="257.9,265.4 267.1,273.2 269.6,270.2 274.4,264.3 265.1,256.4 257.6,265.4 	"/>
	<polygon class="st0" points="237.1,231.8 216.1,252.5 216.1,255 224.5,262 237.1,273 257,289.5 266.5,297.3 270.5,297.3 
		274.9,292.8 280.5,287.5 287.5,280.5 297.9,270.4 297.9,267.9 293.4,262.9 288.4,267.9 281.7,274.4 281.4,273.8 277.2,277.7 
		269.9,284.7 270.2,285.3 268.2,287 264,282.5 260.4,279.1 250.6,271 235.5,258.1 231.8,255.3 230.1,257 229.6,256.4 227.3,254.5 
		228.2,253.4 227.1,252.5 228.2,251.4 231.3,248.6 232.1,249.4 244.1,238 241.3,234.9 237.4,231.2 	"/>
	<polygon class="st0" points="461.1,82.6 453.6,90.1 442.7,101 448.3,106.4 454.7,99.9 454.1,99.4 466.2,87.3 461.1,82.3 	"/>
	<polygon class="st0" points="493.6,72.5 482.1,61.6 473.7,70.2 474.9,71.1 466.5,80 472.1,85.1 472.6,84.5 475.7,87.3 483.5,79.2 
		485.2,80.9 493.3,72.2 	"/>
	<polygon class="st0" points="295.9,227.9 289.2,236.6 287.5,238.5 294.3,246.4 304.1,234.9 295.9,228.2 	"/>
	<polygon class="st0" points="251.1,235.2 268.8,250 269.6,249.4 281.7,263.7 288.9,257.6 278.6,245.8 276.6,243.3 274.7,245 
		258.4,225.9 	"/>
	<g>
		<defs>
			<rect id="SVGID_5_" x="0" y="0" width="538" height="360"/>
		</defs>
		<clipPath id="SVGID_6_">
			<use xlink:href="#SVGID_5_"  style="overflow:visible;"/>
		</clipPath>
		<polygon class="st3" points="544.9,191.8 538.1,198.5 544.9,205.5 551.6,198.8 548.5,195.7 544.6,191.8 		"/>
	</g>
	<polygon class="st0" points="535.6,170.2 536.5,171 535.6,171 538,173.4 538,168.7 537.6,168.2 	"/>
	<polygon class="st0" points="333.7,271.3 350.8,288.1 351.9,287.8 361.2,278.3 361.2,276.6 348.9,265.1 344.7,260.9 343.5,260.9 
		333.5,270.7 333.7,271.6 	"/>
	<polygon class="st0" points="488,91.8 469,111.4 460.9,119.8 468.7,127.4 495.9,99.4 489.4,93.2 487.7,91.8 	"/>
	<polygon class="st0" points="345.8,248.6 351.4,243.3 348.9,240.8 346.3,238.5 344.1,238.5 339.9,242.7 345.8,248.6 	"/>
	<polygon class="st0" points="524.4,148.4 517.1,155.6 525.8,164 533.1,156.8 	"/>
	<polygon class="st0" points="365.4,278.3 360.3,283 365.4,288.1 369.9,283 365.4,278.6 	"/>
	<polygon class="st0" points="296.5,198.2 295.1,196.5 294.5,197.4 290.3,194.3 288.7,192.9 290.1,191.5 289.2,190.9 283.1,196.2 
		284.7,198.2 274.7,207.7 273.5,206.9 267.4,202.1 270.7,199 279.4,190.6 285,185 286.7,183.1 289.2,182.8 298.7,192.3 300.4,193.7 
		296.2,198.2 	"/>
	<polygon class="st0" points="384.1,275.2 382.5,273.5 376,267.1 370.1,273 378.3,281.1 	"/>
	<polygon class="st0" points="511.8,133 509.6,135.2 505.7,131.3 497.3,139.7 492.8,135.2 503.1,124.8 494.7,116.4 484.4,126.8 
		483.3,125.7 474.9,134.1 486.9,146.1 502,161.2 509.3,154 508.2,152.8 519.7,141.4 512.1,133.8 	"/>
	<polygon class="st0" points="333.2,236 337.4,232.4 337.4,229.8 333.5,225.6 330.4,222.3 327.3,222.3 323.7,227 333.2,236.3 	"/>
	<polygon class="st0" points="61.3,202.1 60.5,203.8 69.7,208 70,207.4 71.4,208.3 71.7,207.4 73.9,208.6 73.3,210 73.1,210 
		71.1,214.4 73.1,215.3 72.8,215.8 78.1,218.4 83.7,206.3 81.7,205.5 82,204.6 77.5,202.7 66.3,197.4 63.8,196.2 60.7,202.7 	"/>
	<polygon class="st0" points="241.9,28.2 236.3,35.5 242.7,40.6 247.2,34.7 248.3,33.3 241.9,28.2 	"/>
	<polygon class="st0" points="244.1,105 240.5,109.7 248.9,116.2 251.1,113.4 252.8,111.4 244.4,105 	"/>
	<polygon class="st0" points="156.5,113.4 164.6,116.7 164.3,118.1 170.8,123.2 173,124.8 167.7,132.1 155.4,125.1 153.7,123.2 
		153.7,120.4 	"/>
	<g>
		<defs>
			<rect id="SVGID_7_" x="0" y="0" width="538" height="360"/>
		</defs>
		<clipPath id="SVGID_8_">
			<use xlink:href="#SVGID_7_"  style="overflow:visible;"/>
		</clipPath>
		<polygon class="st4" points="-4.2,-33.9 -27.7,-0.3 -21.3,4.2 -19.3,1.9 -16,1.4 -12.9,3.3 -4.8,-12.1 -6.5,-12.9 -6.5,-14 
			-5.6,-16 -4.5,-17.4 -3.7,-17.4 -3.7,-14.9 3.3,-11.5 7.8,-18.8 0.3,-22.4 0.5,-24.1 1.4,-26.1 2.5,-26.9 3.6,-26.9 3.3,-28 
			2.2,-28.9 -4.8,-33.6 		"/>
	</g>
	<polygon class="st0" points="199.3,80.9 192.9,88.7 200.7,94.3 205.2,88.2 202.7,86.5 203.5,85.4 201.3,84 203.3,81.4 200.7,79.5 
		199.6,81.2 199.1,80.9 	"/>
	<polygon class="st0" points="162.7,96.3 157.6,110.6 164.3,113.1 167.7,104.4 166.3,104.1 169.7,99.4 162.7,96.8 	"/>
	<polygon class="st0" points="262.9,29.4 254.5,40.6 252.3,43.4 259,48.4 269.6,34.4 	"/>
	<polygon class="st0" points="121.8,57.6 118.1,63.2 113.1,60.2 95.7,89.6 102.2,93.2 108.3,96.8 124.9,68.8 133.5,54 120.1,43.6 
		115.1,39.7 109.7,35.5 106.9,40.3 104.1,45 98.8,53.7 94.3,61 90.4,67.4 86.5,73.9 82.9,79.8 83.7,82.3 89.6,85.9 113.7,44.8 
		117.9,47.8 114.5,53.4 121.2,57.4 	"/>
	<polygon class="st0" points="118.7,0 109.5,11.7 115.6,16.5 126,3.3 121.7,0 	"/>
	<polygon class="st0" points="223.4,101.9 218.7,108 227.1,114.5 231.8,108.3 229,106.1 229.6,105.2 226.8,103 226.2,103.8 
		223.7,101.9 	"/>
	<polygon class="st0" points="264.3,57.9 259.5,64.4 266.3,69.4 268.5,66.3 271,63 	"/>
	<polygon class="st0" points="306,87.9 301.5,94 305.7,97.1 309.9,100.2 314.4,103.3 318.9,97.1 317.8,96.3 312.7,92.6 307.4,88.7 
		306,87.9 	"/>
	<polygon class="st0" points="311.6,16.8 307.4,22.6 305.2,21 301,27.1 303.2,28.5 303.5,28.2 316.1,37.5 324.2,26 320.3,22.9 
		314.7,19 311.3,16.8 	"/>
	<polygon class="st0" points="227.9,128.8 209.7,151.7 210.5,154.8 220.9,157.3 227.1,158.7 229.6,159.3 237.1,161.2 244.1,162.6 
		247.8,163.5 248.6,160.7 252,155.6 252.8,156.2 257.9,150 250.6,144.4 249.5,146.1 245.8,150.6 248.3,152.6 246.7,154.8 
		242.7,155.4 238.5,154.2 238.8,153.1 231,151.4 226.5,150.3 226.5,151.4 222,148.4 232.7,136.3 235.2,138.3 232.9,141.1 
		241.1,147.5 242.7,148.6 247.8,142.5 233.8,132.1 229.3,128.8 227.3,128.8 	"/>
	<polygon class="st0" points="238.3,112.8 233.5,119 240.5,124.6 243,121.2 245.3,118.4 238.3,112.8 	"/>
	<polygon class="st0" points="170.8,108.9 167.1,113.9 176.4,120.6 180,115.6 	"/>
	<polygon class="st0" points="147.5,42 151.5,45 157.9,50.1 157.3,50.6 162.7,54.8 164.1,51.2 162.1,49.8 167.4,36.6 163.2,33.6 
		164.6,32.2 163.2,31.3 161,33.6 159.9,32.7 156.2,30.2 163.2,20.7 171.6,27.1 177.5,31.6 178.1,33.6 167.7,58.8 165.2,64.9 
		163.2,65.5 142.2,49.2 147.5,42.2 	"/>
	<polygon class="st0" points="197.7,9.2 190.7,27.4 190.4,28.8 191.2,30.5 196.8,35 198.8,36.4 204.1,29.4 200.7,26.8 201.9,22.4 
		206.6,24.3 212.2,15.6 197.9,9.5 	"/>
	<polygon class="st0" points="178.6,56 172.5,71.4 172.7,72.8 181.1,78.9 185.9,73.3 180.9,69.7 182.8,64.4 184.8,65.5 186.2,60.4 
		186.5,59.9 183.7,57.6 182.8,58.5 178.6,55.7 	"/>
	<polygon class="st0" points="51.3,0 56.5,3.3 58.7,0 	"/>
	<polygon class="st0" points="109.2,147 113.9,140.8 112.3,138.8 111.4,139.1 110,137.2 109.2,137.4 107.8,135.8 106.9,136 
		105.3,133.8 101.6,138.3 99.1,136.3 94.3,142.5 105.5,151.4 108.9,147.2 	"/>
	<polygon class="st0" points="281.4,61.6 274.9,70.2 283.9,77 287.3,72.5 290.3,68.3 281.4,61.6 	"/>
	<polygon class="st0" points="170.9,0 179.7,7 177.2,13.7 175.3,18.2 181.7,22.6 188.7,6.7 187.9,4.4 182.1,0 	"/>
	<polygon class="st0" points="328.7,29.1 320.9,40 330.9,47.6 339.3,36.4 336,34.4 331.8,31.3 328.7,29.1 	"/>
	<path class="st0" d="M288.7,8.9l0.3,0l-0.2-0.1L288.7,8.9z M280.2,0l-1,1.4l3.4,2.8l6.3,4.6l7-8.8H280.2z"/>
	<polygon class="st0" points="55.7,8.1 52.9,12.6 60.5,17 63.3,12.6 	"/>
	<polygon class="st0" points="121.7,0 126,3.3 137.7,12.3 138.6,11.2 141.7,13.7 146.4,7.5 136.7,0 	"/>
	<polygon class="st0" points="195.1,132.1 192.9,130.2 190.7,128.2 190.9,127.6 187.9,125.1 187.3,125.7 183.7,122.9 182.8,124 
		181.1,123.4 176.1,130.4 176.7,132.1 176.1,133 179.5,135.8 179.2,136.3 180.9,137.7 181.7,136.9 183.4,138.3 183.9,137.7 
		188.1,141.1 189,140.5 195.1,132.1 	"/>
	<polygon class="st0" points="272.1,75.3 264.3,85.6 272.1,91.5 274.1,93.2 281.9,82.8 274.1,77 272.1,75.6 	"/>
	<polygon class="st0" points="277.2,40.8 273,46.4 275.5,48.4 274.9,49 276.1,49.8 276.9,50.4 277.5,49.5 279.7,51.2 284.2,44.8 
		278.6,40.6 276.9,40.8 	"/>
	<polygon class="st0" points="343.3,40 339.1,46.2 336.8,44.8 333.5,49.5 348.6,60.2 351.9,55.4 355.3,57.9 359.5,51.8 353.3,47.6 
		345.5,42 343,40.3 	"/>
	<polygon class="st0" points="133.3,27.1 126,36.6 128.5,38.6 133.5,42.5 139.1,46.7 147,36.6 148.4,34.7 143.1,30.5 138.3,36.6 
		136.1,35 138.9,31.3 133.5,27.4 	"/>
	<polygon class="st0" points="303.2,126.2 299.6,131.3 301.8,132.7 305.5,135.5 303.8,138 302.1,140.2 296.5,136 295.1,134.9 
		291.2,140 292.6,141.1 288.1,147 274.9,136.9 271.9,140.8 267.9,145.8 290.1,163.2 307.7,140.2 311.6,134.1 311.3,132.4 
		303.2,126.5 	"/>
	<polygon class="st0" points="261.8,153.4 253.4,164.6 272.1,169.4 275.2,165.4 261.5,153.7 	"/>
	<polygon class="st0" points="152.6,78.6 146.4,74.4 151.2,67.4 156.5,71.6 160.4,74.7 161,77.2 158.5,83.7 152.6,78.9 	"/>
	<path class="st0" d="M201.8,0l-2.7,6.7l10.6,4.2l2.2-5.9l-4.5-2l1.4-3H201.8z M214.6,0l5.4,3.9l3-3.9H214.6z"/>
	<polygon class="st0" points="283.1,89.6 278.3,95.7 287.3,102.4 289.5,104.1 294.3,97.7 285.9,91.5 283.1,89.3 	"/>
	<polygon class="st0" points="256.5,68.8 251.4,75.8 260.7,82.6 265.7,75.6 259.3,70.8 256.5,68.8 	"/>
	<polygon class="st0" points="151.9,0 152.6,0.5 158.2,4.7 161.8,0 	"/>
	<polygon class="st0" points="212.5,21.2 208,26.8 211.1,29.4 217.8,34.7 222.3,29.1 212.5,21.2 	"/>
	<polygon class="st0" points="297.6,100.5 292.9,106.6 304.3,115 309.1,108.9 306.3,106.6 301,102.7 297.6,100.2 	"/>
	<polygon class="st0" points="171.9,100.5 177.5,105 183.9,96.3 185.3,94.3 180,90.1 169.4,82.3 168,82.6 162.4,96.3 169.4,98.8 
		171.6,100.5 	"/>
	<polygon class="st0" points="187,71.9 185.6,73.6 180.9,79.2 190.9,86.8 196.5,79.2 192.9,76.4 193.7,75.3 191.2,73.3 190.4,74.4 
		186.7,71.9 	"/>
	<polygon class="st0" points="43.9,1.6 42.8,3.6 41.7,2.8 40.6,4.7 41.7,5.6 38.1,11.2 36.9,10.3 35.8,11.7 36.9,12.6 34.4,16.5 
		33.3,15.6 32.2,17.3 33.3,18.2 29.7,23.8 28.8,23.2 27.7,24.9 28.5,25.4 27.1,27.4 29.7,29.1 29.1,29.9 31.6,31.6 32.2,30.5 
		34.7,32.2 35.8,30.2 36.7,30.8 37.8,28.8 37.2,28.5 40.9,22.6 41.4,22.9 42.5,21.2 42,20.7 44.5,17 45.3,17.6 46.5,15.6 45.6,15.1 
		47,13.1 45.1,11.7 45.3,11.2 46.5,11.7 47,10.9 45.9,10 46.2,9.5 46.7,9.8 48.1,7.8 48.7,8.1 49.5,6.7 48.7,6.1 50.4,3.6 48.4,2.5 
		48.7,1.9 46.7,0.8 46.2,1.6 44.2,0.5 	"/>
	<polygon class="st0" points="112,124 108.9,128.8 117.3,134.4 120.4,129.9 112,124.3 	"/>
	<polygon class="st0" points="248.9,19 243,26.8 252.8,34.1 253.1,33.6 258.4,26.3 248.6,19 	"/>
	<polygon class="st0" points="262.1,0 259.3,3.9 253.8,0 239,0 241.9,2.2 248.6,7 256.2,12.3 260.1,15.1 266.8,5.8 267.4,6.4 
		270.5,2.5 272.4,0 	"/>
	<polygon class="st0" points="216.1,18.2 218.9,14.2 227.3,2.8 236.6,9.5 245,15.6 238.3,24.9 234.1,30.8 228.2,26.6 235.5,16.8 
		229.9,12.6 222.6,22.4 216.4,17.9 	"/>
	<polygon class="st0" points="114.8,112 111.1,109.7 107.5,108 105,111.4 101.9,115.6 106.9,119.5 108.1,117.8 110.3,119.2 
		114.8,112.2 	"/>
	<polygon class="st0" points="265.7,325.9 266.5,327 261.5,332 260.1,331.8 255.3,326.4 257.6,324.2 260.7,320.6 265.4,326.2 	"/>
	<polygon class="st0" points="248.9,298.2 260.4,307.4 255.3,312.7 246.9,320.6 238.8,328.1 225.9,340.7 215.3,326.2 211.4,320.6 
		237.7,288.1 248.9,297.6 	"/>
	<polygon class="st0" points="304.9,219.8 299,215 297.6,216.7 295.9,218.9 295.7,219.2 308.3,229.6 311.9,225.1 305.2,219.5 	"/>
	<polygon class="st0" points="365.9,318.9 369.6,315.2 375.7,309.1 377.7,311.3 381.6,315.8 378,319.7 375.5,322.2 372.7,325.3 
		365.9,318.9 	"/>
	<polygon class="st0" points="377.1,325.3 378.5,327 380.8,329.5 388.3,323.1 386.7,321.4 384.4,318.9 377.4,325 	"/>
	<polygon class="st0" points="227.3,214.4 235.7,220.9 239.1,217.5 241.6,215 234.6,207.7 231,211.6 230.7,211.4 227.6,214.4 	"/>
	<polygon class="st0" points="166.9,4.4 163.5,8.9 175.3,18.2 177.2,13.7 171.9,9.8 172.5,8.9 171.1,7.8 166.9,4.7 	"/>
	<polygon class="st0" points="396.7,2.2 392.8,7.5 390,5.6 386.1,10.6 395.1,17 400.4,9.5 402.6,6.7 397,2.5 396.5,2.2 	"/>
	<polygon class="st0" points="397.3,0 398.4,0.8 398.4,0.8 399,0 	"/>
	<g>
		<defs>
			<rect id="SVGID_9_" x="0" y="0" width="538" height="360"/>
		</defs>
		<clipPath id="SVGID_10_">
			<use xlink:href="#SVGID_9_"  style="overflow:visible;"/>
		</clipPath>
		<polygon class="st5" points="266.8,-5.6 259.3,-11.2 258.7,-11.5 255.3,-7 257.6,-5.4 263.2,-1.4 266,-4.5 		"/>
	</g>
	<polygon class="st0" points="310.8,64.4 319.5,70.5 313.9,78.4 311.3,76.4 312.5,75 306.3,70.5 	"/>
	<polygon class="st0" points="231.5,72.8 226.2,68.8 221.7,75 223.7,76.4 227.1,78.9 231.5,72.8 	"/>
	<polygon class="st0" points="302.9,84.8 298.5,91 295.7,89 293.1,87 297.6,80.9 	"/>
	<polygon class="st0" points="331.8,108.3 324.8,103.3 318.3,112.5 318.6,112.8 325.3,117.6 329.5,111.7 332.1,108.3 	"/>
	<polygon class="st0" points="210.3,56.5 218.1,62.4 213.9,68.3 209.7,64.9 208.3,66.3 204.9,64.1 208,59.9 	"/>
	<polygon class="st0" points="204.1,29.1 216.1,38 210.5,45.3 202.4,39.2 198.5,36.4 203.8,29.4 204.1,29.1 	"/>
	<polygon class="st0" points="297.6,80.9 292.3,77 287.8,83.1 290.3,85.1 293.1,87 	"/>
	<polygon class="st0" points="250.9,86.8 246.1,92.9 248.9,94.9 251.7,96.8 256.5,90.7 251.1,86.5 	"/>
	<polygon class="st0" points="325.1,117.3 319.5,125.1 317.5,125.4 313.3,122.3 318.1,115.6 316.7,114.8 317.5,113.9 318.3,112.8 
		325.1,117.6 	"/>
	<polygon class="st0" points="146.7,7.5 141.9,13.7 148.4,18.7 149.5,17 153.1,12.6 	"/>
	<polygon class="st0" points="264.3,57.9 269.1,51.2 275.8,56.2 273.3,59.9 271,63 264.3,57.9 	"/>
	<polygon class="st0" points="334.9,92.9 333.7,94.6 332.3,93.5 326.5,101.3 333.2,106.4 336,102.4 340.2,96.8 334.9,92.9 	"/>
	<polygon class="st0" points="192.9,46.2 187.6,59.6 196,63.2 199.1,59.3 201,49.2 193.2,46.2 	"/>
	<polygon class="st0" points="316.4,87 318.9,89 321.4,91 317.5,96.3 312.5,92.6 316.4,87.3 	"/>
	<polygon class="st0" points="236.9,76.7 231.5,72.8 227.1,78.9 230.1,81.2 232.4,82.8 236.9,76.7 	"/>
	<polygon class="st0" points="216.1,38 222.3,42.8 216.7,50.1 212.8,47.3 210.5,45.6 216.1,38.3 	"/>
	<polygon class="st0" points="153.1,12.6 149.5,17 151.7,18.7 150.9,19.6 156.2,23.8 156.8,23.2 160.4,18.4 152.9,12.6 	"/>
	<polygon class="st0" points="218.1,62.4 223.4,66.3 218.7,72.8 217.3,71.6 213.3,68.6 213.9,68 218.1,62.1 	"/>
	<polygon class="st0" points="222.6,42.5 229.3,47.6 224,54.8 219.8,51.8 217.3,49.8 222.9,42.5 	"/>
	<polygon class="st0" points="319.5,70.5 325.6,75 321.1,81.4 317.2,78.6 316.1,80 313.9,78.4 	"/>
	<polygon class="st0" points="201,49.2 210.3,56.2 208,59.6 204.9,63.8 198.8,59.3 200.7,49.2 	"/>
	<polygon class="st0" points="325.6,75 331.8,79.5 327.3,85.9 321.1,81.4 	"/>
	<polygon class="st0" points="317.5,113.6 316.4,112.8 312.7,110 307.1,117.8 313.6,122.3 318.3,115.6 316.9,114.8 317.8,113.9 	"/>
	<polygon class="st0" points="276.3,106.1 266.3,98.5 256.7,91.2 249.7,100.5 262.6,110.3 260.7,113.1 267.1,118.1 276.1,106.4 	"/>
	<polygon class="st0" points="303.2,126.2 293.4,119 276.3,106.1 267.4,117.8 288.1,133.5 292.3,127.6 295.4,129.9 296.8,129.3 
		299.6,131.3 303.2,126.2 	"/>
	<polygon class="st0" points="223.7,55.1 230.1,59.9 235.7,52 240.5,45.6 234.1,40.8 229,47.6 223.7,54.8 	"/>
	<polygon class="st0" points="151.2,19.8 146.7,25.7 152,29.9 155.4,25.4 156.5,24 	"/>
	<polygon class="st0" points="225.7,29.4 222,34.1 225.4,36.6 227.6,38.3 231.3,33.6 225.7,29.6 	"/>
	<polygon class="st0" points="307.1,88.7 311.1,83.4 313.9,85.4 316.4,87 312.5,92.4 307.1,88.4 	"/>
	<polygon class="st0" points="296.2,71.4 292,77.2 297.3,81.2 302.7,85.1 306.9,79.2 301.3,75.3 295.9,71.4 	"/>
	<polygon class="st0" points="239.7,78.6 234.9,85.1 237.4,87 244.1,92.1 248.9,85.6 239.7,78.9 	"/>
	<polygon class="st0" points="333.5,81.4 328.7,87.9 334.9,92.4 334.6,92.9 339.9,96.8 343.8,91.8 343.5,88.7 335.4,83.1 
		333.2,81.4 	"/>
	<polygon class="st0" points="149.5,197.4 148.1,197.4 141.4,194 138,201 133.8,199 129.6,208 147.5,216.7 150.1,215.3 150.6,216.1 
		152.3,215 152.6,215.3 155.1,213.9 154.8,213.6 156.5,212.5 155.9,211.6 158.5,210.2 158.5,203.2 158.7,197.6 149.8,197.4 	"/>
	<polygon class="st0" points="321.1,340.2 327,334 332.9,341.3 328.1,346.6 320.3,353.9 317.8,353.6 301.3,335.1 307.4,330.1 
		307.1,329.5 309.9,327.3 321.4,340.2 	"/>
	<polygon class="st0" points="5.9,177.5 1.9,185.9 0,190 0,208.6 1.1,209.1 7.5,195.7 7.8,196 13.7,183.4 11.7,182.5 13.4,178.9 
		15.4,180 15.1,180.8 24.9,185.6 24.6,185.9 28.8,187.8 29.1,187.6 31.3,188.7 31.1,189.5 34.4,191.2 33.3,193.4 32.2,192.9 
		24.3,209.1 25.7,209.7 24.9,211.4 23.8,210.8 24.1,210.2 19.9,208.3 19.6,208.8 17.9,208 18.2,207.4 17.1,206.9 10.6,203.8 
		6.4,212.5 7.3,212.8 7,213.6 9.2,214.7 9.5,213.9 28,222.6 30.5,217.2 40.9,195.4 45.1,186.4 31.6,180 24.6,176.6 16.8,173 
		9.8,169.6 	"/>
	<polygon class="st0" points="20.1,24.3 11.2,38.3 5.3,34.4 14.3,20.4 20.4,24.3 	"/>
	<polygon class="st0" points="27.7,48.7 17.1,42 19,38.9 19.6,39.2 24.1,32.4 26.9,34.1 28,32.7 33.3,36.1 31.1,39.4 33.3,40.8 
		28,49 	"/>
	<polygon class="st0" points="110,185.9 106.1,194 103.6,195.1 102.2,194.6 99.9,193.2 95.5,191.2 99.1,183.9 100.2,184.8 
		100.8,183.4 102.2,183.6 103,182.2 110,185.9 	"/>
	<polygon class="st0" points="77.5,148.6 85.9,154.5 86.8,153.4 87.3,154 90.1,155.9 89,157.6 91.5,159.3 87.6,164.6 85.1,168 
		71.1,159.8 77.3,148.6 	"/>
	<polygon class="st0" points="17.6,350 12,355.3 2.2,345.2 8.1,339.6 17.6,350 	"/>
	<path class="st0" d="M7.8,339.9L7.8,339.9l0.3-0.3L7.8,339.9z M0,342.9l2.2,2.3l5.6-5.3l-4.2-4.5l1.1-1.1l-0.8-0.8l-1.1,0.8l-2.8-3
		V342.9z"/>
	<polygon class="st0" points="3.3,322.5 5.9,317.2 9.2,318.9 21.3,332.3 15.9,337.1 3.3,322.8 	"/>
	<polygon class="st0" points="35.3,313.3 25.2,303.2 30.8,291.2 53.7,302.4 44.8,321.1 34.4,315.8 35.5,313.3 	"/>
	<polygon class="st0" points="0,329.2 1.4,327.8 0,325.7 	"/>
	<polygon class="st0" points="20.7,346.9 21.5,344.9 17.9,341.8 26.6,334 33.9,342.7 29.9,351.1 22.4,347.4 	"/>
	<polygon class="st0" points="0,321.8 3.1,323.1 3.3,322.2 5.9,316.9 0,314.1 	"/>
	<polygon class="st0" points="26.6,334 34.7,325.6 39.7,330.6 33.6,342.7 26.3,334 	"/>
	<polygon class="st0" points="20.4,352.2 17.6,349.7 12,355 17,360 25.8,360 27.7,355.8 29.9,351.1 22.4,347.4 22.4,347.2 	"/>
	<polygon class="st0" points="86.5,215.3 90.1,207.7 97.1,211.1 97.4,212.8 94.3,218.9 86.5,215.3 	"/>
	<polygon class="st0" points="7,288.1 15.1,291.7 18.2,285 10.1,281.4 	"/>
	<g>
		<defs>
			<rect id="SVGID_11_" x="0" y="0" width="538" height="360"/>
		</defs>
		<clipPath id="SVGID_12_">
			<use xlink:href="#SVGID_11_"  style="overflow:visible;"/>
		</clipPath>
		<polygon class="st6" points="-5.3,277.4 -6.5,280 -1.7,282.5 -0.6,280 		"/>
	</g>
	<polygon class="st0" points="20.7,286.4 15.9,295.9 20.4,300.7 25.2,296.2 27.7,290 20.4,286.4 	"/>
	<polygon class="st0" points="495.3,0 491.4,8.1 489.7,6.4 485.2,2.2 484.4,3 481.3,0 445.6,0 449.9,3.9 455.8,9.2 492.2,42 
		491.9,41.4 524.4,8.4 518.5,6.7 516.9,6.1 512.9,5 507.1,3.3 501.2,1.6 495.4,0 	"/>
	<polygon class="st0" points="28,91 26.3,94.9 26.9,98.2 29.4,100.5 33.9,98.8 36.1,94.9 37.2,89.6 36.4,85.9 35,83.7 32.5,82.6 
		29.9,83.1 28.5,84.5 28.5,87.9 28.3,91.2 	"/>
	<polygon class="st0" points="203.3,96.6 211.1,102.4 223.4,86.2 219.5,83.7 218.4,85.4 212.2,80.9 215.3,76.4 210.3,73 207.5,77 
		204.7,75.3 201,79.8 203.5,81.7 212.2,88.4 210.3,91.2 208.9,90.4 203.5,96.8 	"/>
	<polygon class="st0" points="202.1,72.8 199.1,77 190.4,70.2 193.5,66.3 	"/>
	<polygon class="st0" points="184.8,65.8 184.5,66.6 187.9,69.1 191.2,64.6 186.5,61 185.1,66 	"/>
	<polygon class="st0" points="99.1,257.8 101.3,253.1 96.3,250.6 93.8,255.3 99.4,257.6 	"/>
	<polygon class="st0" points="96.3,266.2 91.5,264.3 87.9,272.7 92.7,274.6 	"/>
	
		<rect x="75" y="287.7" transform="matrix(0.4473 -0.8944 0.8944 0.4473 -215.5973 227.8605)" class="st0" width="3.1" height="1.3"/>
	<polygon class="st0" points="100.2,262 114.8,267.9 113.7,270.4 99.1,264.6 	"/>
	<polygon class="st0" points="350.5,358.4 348.9,359.8 348.7,360 357.1,360 356.4,359.2 354.5,358.4 352.2,358.1 	"/>
	<polygon class="st0" points="332.9,352.8 339.6,359.5 340.2,358.9 345.8,353.6 345.5,353.6 338.8,346.9 	"/>
	<polygon class="st0" points="367.5,360 375,360 371.8,356.4 	"/>
	<polygon class="st0" points="358.4,351.9 357.3,350.5 355.6,348.6 353.9,346.6 359.2,342.1 360.9,344.1 364,347.7 358.7,352.2 	"/>
	<path class="st0" d="M339.7,359.6l0.2,0.2l0-0.3L339.7,359.6z M326.5,359.8v0.2h12.7l0.6-0.4l-6.6-6.6L326.5,359.8z"/>
	<polygon class="st0" points="349.7,346 350,346.3 348.3,348 349.7,349.4 345.8,353.3 339.1,346.6 343.5,342.1 344.7,341 
		349.7,345.8 	"/>
	<polygon class="st0" points="353.9,346.6 351.7,343.8 349.7,346 344.7,341.3 350.5,334.8 353.3,334.8 359.2,342.1 353.9,346.6 	"/>
	<polygon class="st0" points="358.7,351.6 359.8,353 364.5,358.9 365.1,358.6 366.1,360 367.5,360 371.8,356.4 371,355.3 364,347.2 
			"/>
	<polygon class="st0" points="377.7,311.3 390,298.7 387.8,296.8 396.5,287.5 410.7,301.2 409.6,302.4 401.8,310.5 399.5,308.2 
		386.7,321.4 384.4,318.9 381.9,315.8 378,311.3 	"/>
	<polygon class="st0" points="280.5,351.6 287.5,360 287.6,360 289.8,358.1 282.8,349.7 	"/>
	<polygon class="st0" points="267.7,329.2 271.3,333.4 268.5,335.7 264.9,331.5 267.7,329 	"/>
	<polygon class="st0" points="320.9,321.7 321.7,321.1 323.9,323.6 320,327 317.8,324.5 320.9,322 	"/>
	<polygon class="st0" points="292.9,302.1 296.2,299 299.9,302.9 300.4,303.8 297.3,306.6 292.9,302.1 	"/>
	<polygon class="st0" points="450.3,360 456,360 451.9,357.5 	"/>
	<polygon class="st0" points="289.5,291.7 295.4,297.9 296.2,298.7 299.9,302.6 304.1,299 299.3,293.7 301.8,291.2 301.3,290.6 
		295.9,285.6 289.5,291.7 	"/>
	<polygon class="st0" points="378,333.4 389.2,346.3 381.6,352.8 376.9,347.2 370.7,339.9 378.3,333.4 	"/>
	<polygon class="st0" points="288.9,338.8 291.5,341.6 294.3,344.6 288.1,350.2 282.8,344.4 	"/>
	<g>
		<defs>
			<rect id="SVGID_13_" x="0" y="0" width="538" height="360"/>
		</defs>
		<clipPath id="SVGID_14_">
			<use xlink:href="#SVGID_13_"  style="overflow:visible;"/>
		</clipPath>
		<polygon class="st7" points="291.7,367.9 295.7,363.7 294.3,362.6 292.6,360.6 288.4,364.5 		"/>
	</g>
	<polygon class="st0" points="282.8,344.1 277.5,338.2 283.6,332.6 285.6,334.8 288.9,338.5 	"/>
	<polygon class="st0" points="277.2,338.2 271.9,332.3 278,326.7 279.1,327.8 283.3,332.3 277.2,337.9 	"/>
	<polygon class="st0" points="294.3,344.9 288.1,350.5 296.7,360 296.8,360 302.9,354.4 296.5,347.2 294.3,344.6 	"/>
	<polygon class="st0" points="272.1,332.3 266.5,326.2 267.9,324.8 272.7,320.6 274.4,322.5 278,326.7 271.9,332.3 	"/>
	<polygon class="st0" points="304.3,288.1 310.2,294.8 318.6,304.6 324.5,299.3 316.1,289.2 310.2,282.5 304.1,288.1 	"/>
	<polygon class="st0" points="276.1,350 268.8,356.1 272.1,360 285,360 280.3,354.4 276.1,349.7 	"/>
	<polygon class="st0" points="260.1,331.8 258.1,333.7 259.3,335.4 254.8,339.3 249.2,334 250,330.9 255.3,326.4 260.1,331.8 	"/>
	<polygon class="st0" points="302.4,359.8 302.1,360 307.7,360 305.2,357 	"/>
	<polygon class="st0" points="364.3,332.9 360.3,328.7 360.6,324.5 363.4,321.7 365.7,319.2 372.4,325.6 370.4,329 369.6,328.1 
		364,332.9 	"/>
	<polygon class="st0" points="370.7,329 371.8,330.1 373.8,328.4 378.3,333.4 370.7,339.9 367.9,336.8 364.5,332.9 370.1,328.1 
		371,329 	"/>
	<polygon class="st0" points="267.9,325 267.4,324.5 265.7,326.2 260.9,320.6 265.4,315.8 268.5,316.1 273,321.1 268.2,325.3 	"/>
	<polygon class="st0" points="323.4,312.7 317.5,317.8 321.1,321.7 318.1,324.2 309.7,313.8 318.3,306.3 319.5,307.7 323.7,312.4 	
		"/>
	<polygon class="st0" points="327,333.7 331.5,328.7 327.9,323.9 336,316.9 340.7,322.8 344.9,327.6 335.1,338.8 333.2,340.7 
		327.3,333.4 	"/>
	<polygon class="st0" points="528.1,144.2 538,153.4 538,134.2 	"/>
	<polygon class="st0" points="527.8,172.7 528.3,172.7 520.8,180 522.2,181.7 522.2,182.8 523.6,182.8 526.1,185.3 525.8,187.3 
		527.5,187.3 530.3,189.8 530,191.8 531.7,191.8 532.5,192.9 533.7,191.5 535.3,191.5 535.3,189.8 537.9,187.6 538,187.5 538,172.6 
		536.5,171 535.1,173 534.2,173 530.9,169.4 	"/>
	<polygon class="st0" points="514.9,174.4 512.4,171.9 507.1,166.3 513.5,160.1 521.3,168.2 	"/>
	<polygon class="st0" points="521.3,168.2 522.5,167.4 527.8,173 520.2,180.3 517.7,177.8 514.9,174.7 521.3,168.5 	"/>
	<polygon class="st0" points="360.3,283 358.1,285.3 360.6,287.8 362.9,290.3 364,289.2 365.1,288.1 360.1,283 	"/>
	<polygon class="st0" points="352.8,296.2 354.7,294 356.7,295.6 354.7,297.9 	"/>
	
		<rect x="355" y="297.7" transform="matrix(0.7071 -0.7071 0.7071 0.7071 -107.0673 340.0748)" class="st0" width="4" height="3.2"/>
	<polygon class="st0" points="360.6,287.8 358.1,290.3 360.3,292.8 362.9,290.3 	"/>
	<polygon class="st0" points="376.6,284.2 368.5,292.3 364.3,289.2 363.1,290.3 366.2,294 355.9,303.8 355.9,304.3 354.2,306 
		355.9,307.4 354.2,309.4 353.1,309.4 352.5,308.2 347.5,312.7 349.4,315.5 353.3,319.7 363.1,310.2 369.3,303.8 377.4,295.1 
		382.2,290 376.3,284.4 	"/>
	<polygon class="st0" points="324.5,269.9 329.8,264.6 323.9,258.7 322,260.6 318.9,263.7 324.8,269.6 	"/>
	<polygon class="st0" points="334.3,248 332.6,249.7 328.4,253.9 334.3,259.8 340.2,253.9 	"/>
	<polygon class="st0" points="340.2,254.2 345.8,248.6 339.9,242.7 337.9,244.7 334,248.3 339.9,254.2 	"/>
	<polygon class="st0" points="327.6,241.9 330.4,238.8 333.2,236 323.7,226.8 318.6,232.9 327.6,242.2 	"/>
	<polygon class="st0" points="313,256.2 318.6,250.8 322.5,247.2 313.9,238.5 305.2,248 313,255.9 	"/>
	<polygon class="st0" points="322.3,247.2 325.3,244.1 327.6,242.2 318.6,232.9 313.9,238.8 322.5,247.5 	"/>
	<polygon class="st0" points="272.4,224.8 269.6,221.7 266.5,217.8 272.4,212.8 277.5,218.9 272.1,224.5 	"/>
	<polygon class="st0" points="353.9,258.4 362.3,266.8 368.7,260.4 364.3,255.9 360.3,252 353.9,258.4 	"/>
	<polygon class="st0" points="305.2,248 298.5,255.3 304.1,261.8 306.6,262 309.7,259.2 313,255.9 305.2,248 	"/>
	<polygon class="st0" points="283.1,226.5 284.5,224.5 280.8,221.4 283.6,218.4 291.5,224.8 287.8,229.6 283.3,226.5 	"/>
	<polygon class="st0" points="319.7,280 324.2,285.3 329.5,290.9 335.4,284.2 325.9,273.5 325.1,274.4 319.7,280.2 	"/>
	<polygon class="st0" points="348.3,301 343.3,295.1 346.6,292 341,287.2 333.5,295.1 338.8,302.4 342.4,306.8 348.6,301 	"/>
	<polygon class="st0" points="292.6,216.4 295.9,218.9 297.6,216.7 299,215 295.7,212.2 294.8,213.3 292.3,216.7 	"/>
	<polygon class="st0" points="362.6,266.8 368.2,272.7 369.3,273.5 369.9,273 375.7,267.1 374.6,265.4 368.7,260.1 362.3,266.5 	"/>
	<polygon class="st0" points="295.7,199 288.4,206.3 283.6,202.7 290.3,194.6 294.5,197.6 295.1,196.8 296.5,198.5 295.7,199.3 	"/>
	<polygon class="st0" points="360.6,251.7 355.6,246.6 352.5,249.7 349.7,252.5 351.9,254.8 351.1,255.3 353.9,258.1 360.3,251.7 	
		"/>
	<polygon class="st0" points="287.5,229.6 286.4,231.2 282.8,235.2 281.4,235.2 276.6,229.6 280.5,226.2 281.7,227.6 283.1,226.2 
		287.5,229.3 	"/>
	<polygon class="st0" points="318.6,263.7 316.7,265.4 312.7,269 313,272.1 320,280 325.3,274.1 323.1,271.3 324.8,269.9 318.9,264 
			"/>
	<polygon class="st0" points="352.2,308.2 351.1,306.8 353.6,304.6 349.4,300.1 348.6,301 342.4,306.8 344.7,309.1 347.5,312.7 
		352.5,308.2 	"/>
	<polygon class="st0" points="308.5,212.5 307.1,211.4 306.6,211.9 305.5,210.8 303.5,208.8 309.7,202.7 315.3,207.7 309.9,213.6 
		308.8,212.8 	"/>
	<polygon class="st0" points="276.6,229.6 274.9,227.6 272.7,224.5 278,218.9 280.8,222 279.7,222.8 281.9,225.1 280.5,225.9 
		276.6,229.3 	"/>
	<polygon class="st0" points="382.2,289.8 385.5,287 389.5,282.5 389.5,280 383.9,275.2 378,281.1 378,282.5 376.3,284.2 
		382.2,289.8 	"/>
	<polygon class="st0" points="329.8,264.3 330.7,265.1 331.5,264.8 330.9,263.2 334.3,259.8 328.4,253.9 326.2,256.2 323.7,258.7 
		329.5,264.6 	"/>
	<polygon class="st0" points="300.7,193.7 307.1,200.2 309.4,202.4 303.2,208.6 301.5,206.9 296.8,202.7 297.9,201.6 295.4,199.3 
		296.2,198.5 300.4,194 	"/>
	<polygon class="st0" points="266.8,217.8 260.9,211.1 260.9,208.3 265.1,204.4 267.9,201.8 274.1,206.6 271.3,209.1 274.1,211.4 
		272.7,212.8 266.8,217.8 	"/>
	<polygon class="st0" points="315,207.4 320.6,213.3 320.3,215.8 311.6,225.6 304.9,220 307.7,217 305.7,215.3 308.3,212.5 
		309.4,213.3 314.7,207.4 	"/>
	<polygon class="st0" points="98.8,119.5 101.9,115.3 106.9,119.2 103.9,123.4 	"/>
	<polygon class="st0" points="216.1,105.8 218.9,108 223.7,101.9 221.5,100.2 220.1,100.8 216.1,105.8 	"/>
	<polygon class="st0" points="452.5,70.8 456.7,66 460,69.1 455.8,73.9 	"/>
	<polygon class="st0" points="58.9,0 56.5,3.6 56.5,3.3 56,3.9 63.5,9.8 68.3,3.9 63.4,0 	"/>
	
		<rect x="33.5" y="42.7" transform="matrix(0.5143 -0.8576 0.8576 0.5143 -20.5637 52.3703)" class="st0" width="4.9" height="3.3"/>
	<polygon class="st0" points="38.6,34.7 36.7,37.5 35.3,36.4 37.2,33.6 	"/>
	<polygon class="st0" points="14.3,20.4 25.7,2.5 31.6,6.4 20.1,24.3 14,20.4 	"/>
	<rect x="59.8" y="36" transform="matrix(0.53 -0.848 0.848 0.53 -3.9903 69.9991)" class="st0" width="2.6" height="5.3"/>
	<polygon class="st0" points="37.2,33.6 39.7,29.9 41.1,31 38.6,34.7 	"/>
	<polygon class="st0" points="422.8,109.7 411,121.8 376.3,85.9 385.5,72.8 386.7,72.5 423.1,109.7 	"/>
	<polygon class="st0" points="344.7,224 345.8,222.8 353.9,215.3 353.6,215 392.5,176.9 383.9,168.2 345.2,206.3 344.9,206 336,215 
		344.9,224.5 	"/>
	<polygon class="st0" points="520.2,115.3 534.5,128.8 538,125 538,114.1 529.2,105.8 	"/>
	<polygon class="st0" points="510.1,88.4 493.3,72.8 485.2,81.4 502,97.1 	"/>
	<polygon class="st0" points="502,97.1 501.2,98 505.4,101.9 519.9,115.6 528.9,106.1 514.3,92.4 510.1,88.4 	"/>
	<polygon class="st0" points="519.4,140.5 527.5,132.4 526.1,131 527.5,129.6 520.2,122.3 518.8,123.7 517.1,122 512.1,127.1 
		513.2,128.2 510.1,131.3 511.5,132.7 519.1,140.2 	"/>
	<polygon class="st0" points="289.8,48.7 287.8,47.3 284.2,44.8 279.7,51.2 279.4,51.8 285,55.7 290.1,49 	"/>
	<polygon class="st0" points="43.4,230.7 47.3,232.6 50.7,234.3 54.6,225.9 47.3,222.6 43.4,231 	"/>
	<polygon class="st0" points="64.7,222.8 58.2,217.2 60.5,212.8 66.3,215.6 66.9,217.5 65.5,220.6 64.4,222.8 	"/>
	
		<rect x="24.4" y="322.4" transform="matrix(0.7071 -0.7071 0.7071 0.7071 -221.1069 114.8736)" class="st0" width="7.5" height="4"/>
	<polygon class="st0" points="67.5,252 74.5,255.6 75.3,257.8 69.7,269 63,266 65.8,260.1 63.8,259.2 67.2,252 	"/>
	<polygon class="st0" points="56.5,204.6 57.7,202.4 56.8,201.8 57.7,200.2 61,201.8 64.1,195.4 55.4,190.9 53.5,191.5 49,200.7 
		56.5,204.4 	"/>
	<polygon class="st0" points="90.1,227.6 94.1,218.9 86.2,215.3 82.9,222 89.9,227.3 	"/>
	<polygon class="st0" points="80.1,349.4 88.7,341 90.7,343 86.2,347.2 87.9,349.1 83.7,353 80.1,349.1 	"/>
	<polygon class="st0" points="114.5,177.2 110.3,185.9 103.3,182.2 102.7,182 107.8,171.9 114.8,177.5 	"/>
	<polygon class="st0" points="90.7,338.8 96.6,345.2 99.1,343 97.7,341.3 98.5,340.2 94.3,335.7 91,338.8 	"/>
	<polygon class="st0" points="135.5,263.2 136.9,263.7 134.9,267.9 133.5,267.4 	"/>
	<polygon class="st0" points="38.6,253.4 40.3,254.2 38.6,257.8 36.9,257 	"/>
	<polygon class="st0" points="65.8,220.6 70,222.3 69.7,223.1 74.7,225.4 73.1,229.6 64.9,222.8 66.1,220.6 	"/>
	<polygon class="st0" points="71.9,179.7 67.7,177.8 64.1,176.1 63.3,173.8 68.3,165.4 75,169.4 74.5,170.2 75.6,170.8 74.7,172.2 
		75.6,172.4 71.9,180 	"/>
	<polygon class="st0" points="91.8,148.4 98.5,153.7 105.3,158.7 101.3,164 96.3,170.8 87.9,164.6 91.8,159.3 89.3,157.6 
		90.4,155.9 87.6,154 	"/>
	<polygon class="st0" points="55.4,278.6 55.7,278 56.5,278.3 57.4,276.6 64.7,280.2 59.9,290.6 57.4,291.7 54.6,290 51.8,288.6 
		52.9,286.1 52.1,285.6 54.6,280.2 55.4,278.6 	"/>
	<polygon class="st0" points="44.5,321.1 45.6,321.7 54.6,302.9 53.5,302.4 	"/>
	<polygon class="st0" points="75.6,172.2 83.1,175.8 79.5,183.4 75.9,181.7 72.2,180 75.9,172.4 	"/>
	<polygon class="st0" points="95.5,190.9 91.3,189 87.9,187.3 91.5,180 99.1,183.6 	"/>
	<polygon class="st0" points="46.2,207.2 44.8,210.5 42,216.4 49.5,220 52.9,213.3 46.5,207.4 	"/>
	<polygon class="st0" points="40.3,282.8 36.9,281.1 33,279.1 36.7,271.3 43.9,274.9 	"/>
	<polygon class="st0" points="45.3,351.6 42.8,357 49.1,360 52.1,360 55.7,352.8 47,348.6 	"/>
	<polygon class="st0" points="48.4,276.9 49.3,275.5 55.4,278.6 54.6,280.2 52.9,279.1 48.7,277.2 	"/>
	<polygon class="st0" points="52.6,213 56.5,204.9 49,201.3 47.9,203.8 46.2,207.2 52.6,213 	"/>
	<polygon class="st0" points="30.8,291.2 31.3,290 54.3,301.2 53.7,302.4 	"/>
	<polygon class="st0" points="57.4,276.6 56.5,276.3 60.2,268.8 64.4,270.7 68.3,272.7 64.7,280.2 	"/>
	<polygon class="st0" points="53.7,341.8 50.9,340.4 49.8,343 47,348.6 55.7,352.8 59.6,344.6 	"/>
	<polygon class="st0" points="83.1,175.8 83.4,175.2 91.8,179.4 91.5,180.3 87.9,187.6 85.7,186.4 79.5,183.4 83.1,175.8 	"/>
	<polygon class="st0" points="58.2,332.9 56.3,336.8 53.7,341.8 59.6,344.6 64.4,346.9 68.6,337.9 64.1,335.7 57.9,332.6 	"/>
	<polygon class="st0" points="41.5,360 48.5,360 42.8,357.2 	"/>
	<polygon class="st0" points="105.3,158.7 111.7,164 117.3,167.7 118.1,169.6 114.5,176.9 107.5,171.3 108.3,170.2 101.3,164 	"/>
	<polygon class="st0" points="78.1,234.6 77,236.8 67.2,232.4 63.5,240.2 68.9,242.7 78.7,247.2 81.2,246.6 84.3,240.2 78.4,234.9 	
		"/>
	<polygon class="st0" points="73.9,312.2 67.7,309.4 65.8,309.9 62.1,316.9 60.7,319.7 68.9,323.6 70.8,319.7 70.3,319.4 
		73.9,311.9 	"/>
	<polygon class="st0" points="33,279.4 28.5,277.2 22.7,274.4 26.3,266.5 30.2,268.5 30.8,267.1 32.2,267.6 31.6,269 36.7,271.3 
		33,279.1 	"/>
	<polygon class="st0" points="70.8,320 73.3,321.1 72.8,322 75,322.8 79.2,319.2 80.9,315.5 77.3,313.8 74.2,312.2 70.5,319.7 
		71.1,320 	"/>
	<polygon class="st0" points="87.3,154 86.8,153.4 85.9,154.5 77.5,148.6 79.8,145 81.5,142.8 82.9,142.2 84,142.5 92.1,148.4 
		87.9,154 	"/>
	<polygon class="st0" points="133.5,137.2 138.3,127.9 137.7,125.7 131.9,122.3 131,124.3 130.2,126.2 129.1,125.7 127.4,129.3 
		128.2,129.9 126.8,133 133.5,137.7 	"/>
	<polygon class="st0" points="97.7,134.9 102.2,129.3 95.5,124 93.2,127.1 91.3,129.9 98,135.2 	"/>
	<polygon class="st0" points="110.3,119 124.3,127.6 128.8,120.6 120.1,115 114.8,111.7 110.3,118.7 	"/>
	<polygon class="st0" points="125.1,154.2 126.8,150.9 127.9,148.4 121.8,143 117.9,150.3 125.1,154 	"/>
	<polygon class="st0" points="91,129.6 87.1,134.4 87.3,136.9 94.9,142.2 99.7,136 98,134.6 91.3,129.3 	"/>
	<polygon class="st0" points="105.8,151.2 120.9,162.6 124.6,155.4 125.1,154 117.9,150.3 115.6,148.6 114.2,150.6 109.5,146.7 
		106.1,150.9 	"/>
	<polygon class="st0" points="127.9,148.4 131.6,140.2 133.5,137.4 126.8,132.7 125.7,134.6 124.6,134.1 121.2,141.1 122.3,141.4 
		121.8,143 127.9,148.4 	"/>
	<polygon class="st0" points="158.5,197.6 158.5,191.8 158.5,186.2 149.5,185.9 149.5,190.6 149.2,197.4 158.2,197.6 	"/>
	<polygon class="st0" points="132.4,192 140.3,176.1 132.1,172.2 130.7,175.2 124.6,188.4 132.7,192.3 	"/>
	<polygon class="st0" points="158.7,186.2 159,169.1 159,162.9 150.6,162.6 150.6,165.4 149.8,165.4 149.5,185.6 158.5,185.9 	"/>
	<polygon class="st0" points="140,176.1 145.6,164.6 144.7,164.3 146.1,161.8 138.9,158.2 136.9,162.4 132.1,171.9 140.3,175.8 	"/>
	<polygon class="st0" points="134.1,198.8 131,197.4 133.3,192.6 132.1,192 124,188.1 119.3,197.9 119,197.9 117,202.1 121.5,204.4 
		121.5,204.1 129.6,208 133.8,199 133.8,198.8 	"/>
	<polygon class="st0" points="152.6,97.4 149.2,105.8 142.8,101.3 141.9,100.5 143.6,98 140.8,96 144.2,91.5 152.6,97.4 	"/>
	<polygon class="st0" points="158.5,83.4 152.6,97.4 144.2,91.5 140.8,89 137.2,93.8 132.7,90.7 132.1,91.2 130.7,90.4 131,89.8 
		126,86.2 134.4,71.9 141.7,59.9 151.2,67.4 146.4,74.4 144.7,77 150.9,81.4 152.6,78.9 158.5,83.7 	"/>
	<polygon class="st0" points="198.5,120.6 204.1,124.8 197.4,133.8 195.1,132.1 189,140.5 191.5,142.5 191.8,142.2 194.6,144.2 
		195.4,144.7 194.9,145.3 196.8,146.7 197.7,145.6 199.3,146.7 199.9,146.1 205.2,150 223.4,126 222.3,125.1 222.9,124.6 
		221.2,123.4 220.6,124 218.7,122.6 219.2,122 217.5,120.9 217,121.5 215,120.1 215.3,119.5 213.6,118.4 213.3,119 212.8,118.4 
		211.7,117.6 212.2,116.7 210.5,115.3 210,115.9 208,114.5 208.6,113.9 206.9,112.8 206.6,113.4 205.8,112.5 199.3,121.2 	"/>
	<polygon class="st0" points="185.3,110.8 198.5,120.6 204.9,112 201,109.2 191.8,102.2 	"/>
	<polygon class="st0" points="191.8,102.2 189.3,100.5 183.9,96.6 177.5,105.2 185.3,111.1 191.8,102.4 	"/>
	<polygon class="st0" points="128.8,98.5 136.6,103.3 136.1,104.1 131.6,111.4 128.5,109.4 123.7,106.6 	"/>
	<polygon class="st0" points="124,106.6 116.5,102.2 122.6,92.1 128.2,95.4 127.1,97.4 129.1,98.5 124,106.6 	"/>
	<polygon class="st0" points="136.3,104.1 139.1,105.8 142.8,101 149.2,105.5 145,116.4 141.9,117 137.5,114.8 135.2,113.4 
		131.9,111.4 136.3,104.1 	"/>
	<polygon class="st0" points="108.9,11.2 109.7,11.7 115.9,16.5 127.7,25.4 122.1,32.7 102.2,17.3 104.1,14.8 105.3,15.6 
		108.9,10.9 	"/>
	<polygon class="st0" points="398.7,330.9 400.7,329.2 402.9,331.8 400.9,333.4 	"/>
	
		<rect x="449.7" y="120.9" transform="matrix(0.7073 -0.7069 0.7069 0.7073 45.5795 354.1656)" class="st0" width="1.6" height="2.4"/>
	
		<rect x="345.4" y="223" transform="matrix(0.7071 -0.7071 0.7071 0.7071 -57.2647 310.5089)" class="st0" width="1.6" height="2.8"/>
	<polygon class="st0" points="201,243 200.2,244.1 202.1,245.5 203,244.4 	"/>
	<polygon class="st0" points="138,19.3 144.2,24 140.8,28.2 134.7,23.2 137.7,19.3 	"/>
	<polygon class="st0" points="153.4,33.6 161.3,39.4 159.3,44.2 150.6,37.8 	"/>
	<polygon class="st0" points="171.6,2.8 169.9,5 173.6,7.8 175.3,5.6 	"/>
	<polygon class="st0" points="244.4,99.4 245,103.8 247.5,103.6 246.9,99.1 	"/>
	<polygon class="st0" points="277.2,278.3 273.3,274.4 278.3,268.5 282.2,272.1 280.8,273.5 281.7,274.4 277.5,278.3 	"/>
	<polygon class="st0" points="451.3,110 456.9,115.6 464.2,108.3 476,96.3 470.7,91 459.2,103 458.9,102.7 451.6,110 	"/>
	
		<rect x="342.8" y="180.4" transform="matrix(0.6839 -0.7296 0.7296 0.6839 -24.528 310.3918)" class="st0" width="6.1" height="6.1"/>
	<polygon class="st0" points="430.1,81.2 438.7,89.3 441,86.8 432.3,78.6 	"/>
	<polygon class="st0" points="433.7,77.2 442.4,85.4 444.6,82.8 435.9,74.7 	"/>
	<polygon class="st0" points="437.1,73.3 446.3,82 447.4,80.9 438.2,72.2 	"/>
	<polygon class="st0" points="427.5,81.2 438.7,91.5 437.9,92.6 426.7,82.3 427.8,81.2 	"/>
	<polygon class="st0" points="258.4,225.9 260.4,223.7 255.1,217.2 252.3,217.2 248.1,221.7 241.9,227.6 247.8,232.4 251.1,235.2 	
		"/>
	<polygon class="st0" points="288.7,8.9 282.2,4.2 275.2,12.8 275.8,14 274.4,15.6 269.6,12.3 264.6,18.7 272.1,24 273.5,25.7 
		276.6,25.4 282.2,17.6 287,11.2 288.7,8.9 	"/>
	<polygon class="st0" points="289.5,303.8 290.6,302.6 291.5,301.8 291.7,301.5 292,301.8 295.7,298.2 289.8,292 285,296.8 
		283.9,297.9 289.5,303.8 289.8,304 	"/>
	<polygon class="st0" points="289.2,303.5 283.6,297.6 277.2,304.3 277.2,307.7 285.3,317.2 292.3,310.8 287.3,305.2 288.1,304.3 
		288.9,303.2 	"/>
	<polygon class="st0" points="240.5,177.8 243.3,178.6 243,180 253.4,182.2 255.1,175 247.2,173.3 241.9,171.9 240.5,177.8 	"/>
	<polygon class="st0" points="264.9,177.2 260.4,176.1 255.1,175 253.4,182.2 260.7,183.6 260.9,182.5 263.5,183.1 264.9,176.9 	"/>
	<polygon class="st0" points="241.9,171.9 230.1,169.1 227.9,172.7 238,183.9 239.9,186.2 243.6,182.8 240.5,179.4 240.8,177.8 
		242.2,171.9 	"/>
	<polygon class="st0" points="399,0 398.4,0.8 398.1,0.5 397,2.2 402.6,6.4 405.4,2.8 407.5,0 	"/>
	<polygon class="st0" points="197.7,215.3 187.9,208.6 187,209.7 184.2,207.7 185.1,206.6 179.7,203.2 172.7,213.6 190.7,225.6 	"/>
	<polygon class="st0" points="246.7,193.7 241.3,187.8 242.5,186.7 243.6,185.6 249.7,190.4 250,190.6 246.7,193.7 	"/>
	<polygon class="st0" points="261.2,196 255.6,201.3 253.4,201.3 246.7,193.7 250,190.6 249.7,190.4 251.7,188.4 252.8,189.5 
		254.2,190.6 252.5,192 254.5,194 256.5,192.3 260.7,195.7 	"/>
	<polygon class="st0" points="267.9,189.5 264.6,192.9 261.2,196.2 257,192.9 254.8,191.2 253.4,190.1 254.5,189 255.6,189.8 
		259.3,186.2 262.3,186.4 262.9,187 264,185.9 267.9,189.8 	"/>
	<polygon class="st0" points="241.6,215 244.1,212.5 246.4,210.2 246.4,207.7 240.8,201.3 237.7,204.4 238,204.6 234.6,208 
		241.6,215.3 	"/>
	<polygon class="st0" points="184.8,175.2 183.4,174.4 183.1,173.6 183.1,168.5 174.4,164.3 173.9,164.3 173.6,179.2 179.7,182.8 
		184.8,175 	"/>
	<polygon class="st0" points="186.5,187.3 179.5,183.1 184.5,175.2 185.1,174.4 191.8,178.6 186.5,187.3 	"/>
	<polygon class="st0" points="213.6,194.6 213.9,194.3 210,192 211.1,190.1 192.1,178.9 186.7,187.6 197.9,194 197.7,194.8 
		208.9,201.3 209.1,201 213.9,194.6 	"/>
	<polygon class="st0" points="227.9,205.5 222.3,210.8 208.6,201 213.3,194.6 219.8,199.9 220.6,199 221.2,199.6 227.6,205.8 	"/>
	<polygon class="st0" points="225.9,184.8 236.6,196.8 227.9,205.5 221.5,199.3 224.3,196.5 225.7,198.2 226.2,197.6 223.4,194.6 
		224.8,193.2 223.4,191.8 221.7,193.2 219.5,190.6 225.9,185 	"/>
	<polygon class="st0" points="216.4,173.8 225.9,184.5 219.5,190.1 216.7,186.7 216.1,187.3 212.2,182.8 213.1,182 210.8,179.4 
		211.7,178.3 216.4,173.6 	"/>
	<polygon class="st0" points="208.3,164.9 216.4,173.8 211.7,178.6 201.3,173 204.4,169.1 208.3,164.6 	"/>
	<polygon class="st0" points="191.2,158.2 206.3,166.6 208,164.9 208.3,165.2 204.4,169.6 201.3,173.6 199.6,175.5 195.4,173 
		196.8,170.8 187.3,165.4 187.6,164.9 191.2,158.2 	"/>
	<polygon class="st0" points="173.9,161.5 173.9,155.6 174.4,155.6 174.4,151.7 175.5,151.7 176.1,150.3 179.2,152 181.1,152 
		181.1,153.1 183.4,154.2 185.3,154.2 185.3,155.1 191.2,158.4 187.6,165.2 182.8,162.9 181.7,165.4 173.9,161.8 	"/>
	<polygon class="st8" points="158.2,120.6 170.5,128.3 167.7,132.1 155.4,125.1 	"/>
</g>
</svg>
