<?xml version="1.0" standalone="no"?>
<!DOCTYPE svg PUBLIC "-//W3C//DTD SVG 20010904//EN"
 "http://www.w3.org/TR/2001/REC-SVG-20010904/DTD/svg10.dtd">
<svg version="1.0" xmlns="http://www.w3.org/2000/svg"
 width="512.000000pt" height="512.000000pt" viewBox="0 0 512.000000 512.000000"
 preserveAspectRatio="xMidYMid meet">
<metadata>
Created by potrace 1.11, written by Peter Selinger 2001-2013
</metadata>
<g transform="translate(0.000000,512.000000) scale(0.100000,-0.100000)"
fill="#000000" stroke="none">
<path d="M65 4798 c-3 -7 -4 -346 -3 -753 l3 -740 135 -2 c74 -1 141 2 149 6
12 7 14 94 15 502 l1 494 26 55 c55 118 133 175 239 175 106 0 183 -57 239
-175 l26 -55 1 -487 c1 -268 4 -494 7 -502 4 -11 33 -14 139 -13 73 0 139 2
146 5 9 3 12 110 12 488 0 455 1 488 20 540 24 70 77 136 138 171 58 34 146
38 206 9 59 -28 122 -98 146 -164 21 -55 21 -71 21 -536 0 -272 4 -487 9 -497
8 -15 27 -17 145 -16 115 0 137 2 144 16 5 9 9 234 8 501 0 536 -4 576 -60
687 -101 199 -275 301 -514 301 -54 0 -122 -6 -150 -14 -72 -19 -159 -65 -213
-114 -37 -34 -47 -38 -61 -27 -124 91 -159 113 -217 133 -56 19 -83 23 -162
20 -99 -3 -114 -8 -258 -85 -56 -30 -70 -23 -74 36 l-3 48 -128 3 c-96 2 -129
-1 -132 -10z"/>
<path d="M3086 4793 c-2 -10 -4 -348 -4 -751 l1 -732 21 -5 c36 -7 264 0 273
8 4 5 9 228 9 495 1 525 2 528 56 605 127 181 350 160 447 -43 l26 -55 5 -505
5 -505 143 -1 c97 -1 144 2 149 10 4 6 8 232 9 501 l1 490 25 57 c28 61 87
126 140 155 22 11 55 17 98 18 102 0 180 -54 237 -165 l28 -55 1 -496 c1 -273
4 -501 8 -507 3 -6 60 -9 148 -8 l143 1 0 530 c0 550 -1 564 -42 645 -7 14
-13 29 -13 33 0 17 -66 103 -114 150 -54 52 -160 109 -246 131 -37 10 -93 14
-175 12 -164 -5 -217 -26 -380 -156 -6 -5 -43 16 -87 50 -111 84 -168 104
-300 104 l-106 1 -104 -52 c-101 -52 -127 -61 -129 -45 -1 4 -3 23 -5 42 -7
62 -3 60 -138 60 -110 0 -125 -2 -130 -17z"/>
<path d="M4557 2098 c-29 -29 -110 -116 -182 -192 -71 -76 -138 -146 -147
-155 -15 -15 -26 -101 -19 -158 1 -10 31 -13 115 -13 80 0 117 -4 122 -12 5
-7 9 -186 10 -398 2 -422 4 -444 65 -565 89 -177 297 -304 479 -293 l55 3 3
126 3 126 -88 38 c-115 49 -136 65 -175 133 l-33 57 -3 387 -3 387 23 6 c13 3
79 6 148 8 l125 2 0 130 0 130 -132 1 c-73 1 -139 4 -148 7 -12 5 -15 34 -17
149 l-3 143 -73 3 -74 3 -51 -53z"/>
</g>
</svg>
