<svg xmlns="http://www.w3.org/2000/svg" viewBox="0 0 100 89.995"><g fill="#1E2021"><path d="M38.849 30.146h-4.691c-.459 0-.66-.201-.66-.666V11.392c0-3.289-2.623-6.03-5.36-6.03-2.687 0-5.358 2.876-5.358 6.03V29.48c0 .465-.2.666-.678.666H17.41c-.457 0-.659-.201-.659-.666V11.392c0-3.289-2.621-6.03-5.366-6.03-2.675 0-5.36 2.808-5.36 6.03V29.48c0 .465-.194.666-.673.666H.662c-.458 0-.662-.201-.662-.666V.68C0 .201.204 0 .662 0h4.022c.457 0 .668.201.668.68v.867c0 .459.198.731.479.731C6.762 2.278 8.842 0 12.048 0c2.082 0 3.764.474 5.298 1.547 1.47 1.005 2.207 1.806 2.483 1.806.335 0 1.002-.872 2.538-1.881C23.908.474 25.785 0 28.138 0c6.631 0 11.384 4.755 11.384 11.392V29.48c0 .465-.192.666-.673.666M99.31 30.146h-4.677c-.469 0-.67-.201-.67-.666V11.392c0-3.289-2.611-6.03-5.367-6.03-2.667 0-5.343 2.876-5.343 6.03V29.48c0 .465-.199.666-.689.666H77.88c-.452 0-.664-.201-.664-.666V11.392c0-3.289-2.611-6.03-5.369-6.03-2.669 0-5.364 2.808-5.364 6.03V29.48c0 .465-.194.666-.652.666h-4.709c-.448 0-.65-.201-.65-.666V.68c0-.479.202-.68.65-.68h4.032c.481 0 .677.201.677.68v.867c0 .459.199.731.458.731.946 0 3.015-2.278 6.242-2.278 2.074 0 3.751.474 5.298 1.547 1.472 1.005 2.189 1.806 2.468 1.806.334 0 1.002-.872 2.544-1.881C84.398.474 86.257 0 88.596 0 95.236 0 100 4.755 100 11.392V29.48c0 .465-.205.666-.69.666M98.718 89.995c-5.487 0-10.786-4.626-10.786-11.323V65.275c0-.474-.198-.678-.662-.678h-3.693c-.461 0-.659-.191-.659-.668l.135-2.335 7.696-8.185.47-.193h2.089c.449 0 .655.193.655.673v4.687c0 .474.2.673.68.673h4.683c.468 0 .673.191.673.674v4.006c0 .477-.205.668-.673.668h-4.683c-.48 0-.68.204-.68.678v13.397c0 1.411.478 2.623 1.471 3.896.609.742 2.012 1.196 4.018 2.067.342.145.547.275.547.675v4.017c0 .604-.333.668-1.281.668"/></g></svg>